<?xml version="1.0" encoding="utf-8"?>
<!-- Generator: Adobe Illustrator 22.0.1, SVG Export Plug-In . SVG Version: 6.00 Build 0)  -->
<svg version="1.1" id="Layer_1" xmlns="http://www.w3.org/2000/svg" xmlns:xlink="http://www.w3.org/1999/xlink" x="0px" y="0px"
	 viewBox="0 0 640 512" style="enable-background:new 0 0 640 512;" xml:space="preserve">
<style type="text/css">
	.st0{fill:#0075B5;}
</style>
<path class="st0" d="M320,144c-53,0-96,50.1-96,112c0,61.8,43,112,96,112c53,0,96-50.1,96-112C416,194.1,373,144,320,144z
	 M368,308.4c0,7.5-3.9,11.6-11.6,11.6h-67.3c-7.7,0-11.6-4.1-11.6-11.6v-8.9c0-7.5,3.9-11.6,11.6-11.6h15.1v-39.9
	c0-5.2,0.5-10.5,0.5-10.5h-0.4c0,0-1.8,2.7-2.8,3.7c-4.5,4.3-10.5,4.5-15.7-1.1l-5.5-6.2c-5.3-5.3-5-11.2,0.5-16.4l21.7-19.9
	c4.4-4.1,8.4-5.7,14.4-5.7h12.1c7.7,0,11.8,3.9,11.8,11.6V288h15.5c7.7,0,11.6,4.1,11.6,11.6L368,308.4L368,308.4z M616,64H24
	C10.7,64,0,74.7,0,88v335c0,13.3,10.7,24,24,24h592c13.3,0,24-10.7,24-24V88C640,74.7,629.3,64,616,64z M512,400H128
	c0-44.2-35.8-80-80-80V192c44.2,0,80-35.8,80-80h384c0,44.2,35.8,80,80,80v128C547.8,320,512,355.8,512,400z"/>
</svg>
